HIERARCHY
ROOT pelvis
{
  OFFSET 0 100 0
  CHANNELS 6 Xposition Yposition Zposition Zrotation Xrotation Yrotation
  JOINT pelvis_right_femur
  {
    OFFSET -10.78128 -3.44521 -0.5502486
    CHANNELS 3 Zrotation Xrotation Yrotation
    JOINT right_femur_tibia
    {
      OFFSET -0.8047443 -44.0398 -0.1307829
      CHANNELS 3 Zrotation Xrotation Yrotation
      JOINT right_tibia_foot
      {
        OFFSET 3.006224 -47.83518 -5
        CHANNELS 3 Zrotation Xrotation Yrotation
        End Site
        {
          OFFSET 0 -5 15
        }
      }
    }
  }
  JOINT pelvis_left_femur
  {
    OFFSET 10.78128 -3.44521 -0.5502486
    CHANNELS 3 Zrotation Xrotation Yrotation
    JOINT left_femur_tibia
    {
      OFFSET 0.8047443 -44.0398 -0.1307829
      CHANNELS 3 Zrotation Xrotation Yrotation
      JOINT left_tibia_foot
      {
        OFFSET -4.370144 -48.10324 -4.275266
        CHANNELS 3 Zrotation Xrotation Yrotation
        End Site
        {
          OFFSET 0 -5 15
        }
      }
    }
  }
  JOINT pelvis_spine1
  {
    OFFSET 0 6.468898 -3.129235
    CHANNELS 3 Zrotation Xrotation Yrotation
    JOINT spine1
    {
      OFFSET 0 23.15396 4.99043
      CHANNELS 3 Zrotation Xrotation Yrotation
      JOINT spine2
      {
        OFFSET 0 20.79997 -5.064912
        CHANNELS 3 Zrotation Xrotation Yrotation
        JOINT neck
        {
          OFFSET 0 14.38658 9.616178
          CHANNELS 3 Zrotation Xrotation Yrotation
          End Site
          {
            OFFSET 0 20 0
          }
        }
      }
      JOINT right_manubrium
      {
        OFFSET -5.722621 16.35077 3.967754
        CHANNELS 3 Zrotation Xrotation Yrotation
        JOINT right_clavicle
        {
          OFFSET -13.16364 1.694482 -4.693211
          CHANNELS 3 Zrotation Xrotation Yrotation
          JOINT right_humerus
          {
            OFFSET -28.5034 -0.3100689 -2.792744
            CHANNELS 3 Zrotation Xrotation Yrotation
            JOINT right_radius
            {
              OFFSET -25.15693 0.02248979 -1.271978
              CHANNELS 3 Zrotation Xrotation Yrotation
              End Site
              {
                OFFSET -15 0 0
              }
            }
          }
        }
      }
      JOINT left_manubrium
      {
        OFFSET 5.722621 16.35077 3.967754
        CHANNELS 3 Zrotation Xrotation Yrotation
        JOINT left_clavicle
        {
          OFFSET 13.16364 1.694482 -4.693211
          CHANNELS 3 Zrotation Xrotation Yrotation
          JOINT left_humerus
          {
            OFFSET 29.39168 -1.063119 -2.237045
            CHANNELS 3 Zrotation Xrotation Yrotation
            JOINT left_radius
            {
              OFFSET 24.59957 -0.9528479 0.9047498
              CHANNELS 3 Zrotation Xrotation Yrotation
              End Site
              {
                OFFSET 15 -0 -0
              }
            }
          }
        }
      }
    }
  }
}
MOTION
Frames: 15
Frame Time: 0.0416666666667
26.72965 101.2888 2997.25 -0.700696 -6.941045 -3.953717 6.27743 -8.042294 3.457405 -0 15.92299 -0 -5.818715 -5.020166 -5.204438 -2.548709 0.9788257 -6.898934 -0 58.17846 -0 -5.852454 -6.589595 14.01948 0.8321608 -2.55255 5.122172 0.3762831 14.2654 -6.978961 1.836189 21.46796 4.008334 1.132243 -19.24153 6.244522 -2.840263 -22.91169 11.50107 94.18268 15.25412 -19.89279 -0 0 14.3663 -22.64962 13.60132 11.5324 4.125071 -25.04982 -8.309265 -88.67277 18.55577 20.82191 0 0 -23.13035 4.194527 13.27505 9.564478
26.08544 102.3574 3002.939 -0.7953998 -7.017165 -4.866603 6.408529 -2.669508 3.883979 -0 14.53661 -0 -6.086877 -7.789978 -4.528223 -1.794147 -4.487769 -6.692964 -0 58.37191 -0 -5.473073 -5.103361 15.19852 0.9607053 -2.642544 5.764502 0.1254196 14.47726 -6.50057 1.810473 21.32822 3.85019 1.072901 -19.31985 6.079692 -2.975491 -24.11151 11.58548 93.35097 14.99573 -18.2171 -0 0 16.43201 -23.12741 13.63379 12.19293 3.793768 -24.42969 -8.214098 -90.20858 18.36857 23.71486 0 0 -21.04029 3.526059 13.2661 10.42956
25.52586 103.0958 3008.553 -0.8432852 -6.902996 -5.863667 6.180614 2.214413 3.742251 -0 12.6789 -0 -6.183398 -10.01775 -3.66705 -0.9587925 -9.665496 -6.194395 -0 54.0878 -0 -4.923399 -4.406776 16.16629 1.079197 -2.717513 6.40823 -0.1319917 14.66774 -6.009021 1.786729 21.19548 3.697003 1.01599 -19.38213 5.919286 -3.092469 -25.28868 11.66577 92.50418 14.75013 -16.51216 -0 0 18.50454 -23.61879 13.65976 12.86173 3.465434 -23.77854 -8.097752 -91.75819 18.12545 26.57141 0 0 -18.91244 2.834663 13.22791 11.31404
25.07936 103.3398 3014.236 -0.8302995 -6.681317 -6.846384 5.696049 6.610752 3.217185 -0 10.85192 -0 -6.089357 -11.66126 -2.696677 -0.07766054 -14.42281 -5.479817 -0 46.46703 -0 -4.261049 -4.346364 16.9551 1.167307 -2.75328 7.058982 -0.4085986 14.8058 -5.475748 1.7694 21.08422 3.555431 0.9684348 -19.39206 5.767519 -3.16299 -26.40898 11.73884 91.57083 14.57316 -14.69574 -0 0 20.60723 -24.16187 13.67221 13.5626 3.145262 -23.03755 -7.930312 -93.31989 17.83421 29.36497 0 0 -16.64811 2.096918 13.12718 12.22548
24.76405 103.021 3020.054 -0.7598987 -6.414752 -7.748404 5.06786 10.52461 2.549224 -0 9.475831 -0 -5.84441 -12.84364 -1.705085 0.7718156 -18.66832 -4.720849 -0 37.0299 -0 -3.526239 -4.71154 17.65451 1.206205 -2.728003 7.714821 -0.7116981 14.86131 -4.882786 1.763173 21.00759 3.432485 0.9351222 -19.31737 5.630829 -3.162768 -27.4299 11.80155 90.49832 14.50611 -12.71452 -0 0 22.73853 -24.78579 13.6666 14.3094 2.83847 -22.16208 -7.687308 -94.87409 17.51506 32.04261 0 0 -14.19259 1.28983 12.92988 13.17504
24.5803 102.1892 3026.006 -0.6508376 -6.188129 -8.534497 4.386703 13.81751 1.979227 -0 9.077141 -0 -5.487438 -13.59759 -0.8307426 1.441176 -22.14606 -4.125365 -0 27.67897 -0 -2.814622 -5.273499 18.30792 1.179278 -2.627164 8.332041 -1.025451 14.80702 -4.257175 1.772378 20.97943 3.3412 0.9202359 -19.13963 5.524014 -3.074565 -28.25337 11.84766 89.3143 14.57925 -10.65653 -0 0 24.75971 -25.47147 13.64204 15.06382 2.56574 -21.17461 -7.3665 -96.30538 17.22299 34.39646 0 0 -11.67218 0.4387756 12.61875 14.12342
24.50282 101.0272 3032.061 -0.5320702 -6.12907 -9.187585 3.699197 16.26082 1.689784 -0 10.31093 -0 -5.022746 -13.75038 -0.2530232 1.747963 -24.45898 -3.855369 -0 20.43952 -0 -2.30631 -5.811806 18.86339 1.078058 -2.45269 8.81879 -1.305748 14.63162 -3.681704 1.798551 21.01167 3.29984 0.928831 -18.86668 5.467384 -2.895358 -28.73121 11.86831 88.14848 14.81527 -8.787399 -0 0 26.37216 -26.13265 13.6008 15.72183 2.368431 -20.19178 -7.000617 -97.3928 17.04797 36.06043 0 0 -9.426381 -0.3473487 12.22018 14.94123
24.4872 99.80707 3038.213 -0.4247605 -6.350326 -9.68834 2.995087 17.73293 1.731592 -0 13.66771 -0 -4.418387 -13.04415 -0.1004914 1.587952 -25.33564 -3.940753 -0 16.47196 -0 -2.170399 -6.204098 19.22266 0.9108283 -2.227383 9.085367 -1.503231 14.35446 -3.252419 1.837962 21.10578 3.320732 0.9650278 -18.53581 5.472975 -2.642178 -28.75584 11.85761 87.16787 15.21997 -7.414918 -0 0 27.27982 -26.65459 13.54679 16.16658 2.287741 -19.37185 -6.645873 -97.93222 17.06234 36.72301 0 0 -7.826305 -0.9191501 11.80724 15.46085
24.49135 98.79808 3044.49 -0.3271708 -6.860401 -10.00544 2.240436 18.28214 2.031173 -0 19.12487 -0 -3.64803 -11.40204 -0.3754316 0.9919432 -24.81297 -4.309202 -0 15.47726 -0 -2.426199 -6.484125 19.34713 0.703406 -1.984683 9.116893 -1.599532 14.02046 -3.009529 1.883037 21.24586 3.397724 1.025706 -18.19695 5.533331 -2.348054 -28.36243 11.81837 86.46409 15.7606 -6.664604 -0 0 27.42733 -26.97421 13.48588 16.35636 2.328418 -18.80411 -6.345868 -97.90407 17.25978 36.39428 0 0 -7.004045 -1.206017 11.45087 15.6179
24.49031 98.20247 3050.916 -0.2186853 -7.568624 -10.09831 1.419895 17.93021 2.469933 -0 26.25816 -0 -2.717393 -8.947258 -1.005601 0.04579574 -23.03436 -4.89525 -0 16.34507 -0 -2.957241 -6.797187 19.26532 0.4865582 -1.752734 8.968196 -1.609264 13.67612 -2.931614 1.926906 21.40641 3.510833 1.099779 -17.89022 5.629316 -2.048551 -27.69259 11.75961 86.03508 16.37158 -6.461467 -0 0 26.98691 -27.10071 13.42638 16.33133 2.458614 -18.4818 -6.115201 -97.45258 17.57578 35.35091 0 0 -6.848747 -1.24985 11.17871 15.48598
24.47694 98.14347 3057.489 -0.0710002 -8.343763 -9.921377 0.5491318 16.50463 2.935144 -0 34.55417 -0 -1.656819 -5.853752 -1.924995 -1.189748 -19.99767 -5.6924 -0 17.95962 -0 -3.605132 -7.336622 19.01627 0.2821535 -1.548077 8.694257 -1.551539 13.352 -2.987971 1.965815 21.56775 3.642537 1.17649 -17.63763 5.745682 -1.769547 -26.86821 11.6891 85.86007 16.9927 -6.704713 -0 0 26.13402 -27.06371 13.37547 16.14189 2.646425 -18.37401 -5.955616 -96.71585 17.95056 33.84456 0 0 -7.225809 -1.114749 10.99135 15.15929
24.45841 98.65775 3064.156 0.138463 -9.011839 -9.439628 -0.3001148 13.69947 3.325897 -0 43.2531 -0 -0.5553598 -2.414773 -3.055707 -2.646549 -15.63274 -6.731779 -0 19.39481 -0 -4.180229 -8.292709 18.65049 0.1036282 -1.381804 8.315485 -1.433153 13.06753 -3.171245 1.997884 21.71936 3.783526 1.249492 -17.45235 5.875165 -1.52969 -25.94502 11.61095 85.95595 17.57958 -7.375972 -0 0 24.93335 -26.87339 13.33748 15.8059 2.878787 -18.48152 -5.874657 -95.74566 18.34565 31.97354 0 0 -8.102736 -0.8216722 10.89226 14.67393
24.45069 99.66264 3070.786 0.3996214 -9.329459 -8.670094 -0.9574362 9.337635 3.567722 -0 50.84992 -0 0.3514771 0.726467 -4.213321 -4.155355 -10.14362 -8.032502 -0 19.96991 -0 -4.43613 -9.752507 18.27368 -0.03451574 -1.26926 7.829645 -1.250766 12.84616 -3.495502 2.021036 21.85251 3.92697 1.313771 -17.35123 6.012993 -1.352741 -24.94986 11.52856 86.38587 18.0769 -8.530049 -0 0 23.37559 -26.51973 13.31564 15.31573 3.153607 -18.84318 -5.893267 -94.54097 18.72287 29.74941 0 0 -9.533267 -0.3514833 10.8986 14.01879
24.46413 100.9295 3077.184 0.6428046 -9.062408 -7.720696 -1.184074 3.720717 3.632698 -0 55.10826 -0 0.6864224 2.655252 -5.077247 -5.409313 -4.292109 -9.51065 -0 19.47269 -0 -4.158145 -11.56794 18.01825 -0.1137761 -1.22995 7.243707 -1.004 12.71832 -3.970259 2.032886 21.95505 4.061954 1.362147 -17.3533 6.150994 -1.269883 -23.93186 11.44831 87.21046 18.40097 -10.20098 -0 0 21.4805 -26.00157 13.31346 14.67361 3.461709 -19.49576 -6.035036 -93.12588 19.03117 27.22974 0 0 -11.54979 0.3086269 11.02673 13.19352
24.48534 102.1337 3083.218 0.7698177 -8.184189 -6.752488 -0.8556069 -2.346891 3.49065 -0 54.32911 -0 0.2105984 2.88865 -5.399766 -6.111133 0.8946473 -10.88306 -0 18.14252 -0 -3.380567 -13.40008 17.87629 -0.1251799 -1.26995 6.602012 -0.710741 12.69759 -4.563241 2.033206 22.0169 4.175471 1.387668 -17.45877 6.278277 -1.29581 -22.97405 11.37873 88.38399 18.48396 -12.268 -0 0 19.39105 -25.36336 13.33209 13.92964 3.774907 -20.39789 -6.293889 -91.61183 19.23118 24.60795 0 0 -14.01718 1.104153 11.25917 12.27051
